<!DOCTYPE svg PUBLIC "-//W3C//DTD SVG 1.1//EN" "http://www.w3.org/Graphics/SVG/1.1/DTD/svg11.dtd">
<!-- Uploaded to: SVG Repo, www.svgrepo.com, Transformed by: SVG Repo Mixer Tools -->
<svg fill="#ffffff" width="800px" height="800px" viewBox="0 0 24 24" xmlns="http://www.w3.org/2000/svg">
<g id="SVGRepo_bgCarrier" stroke-width="0"/>
<g id="SVGRepo_tracerCarrier" stroke-linecap="round" stroke-linejoin="round"/>
<g id="SVGRepo_iconCarrier">
<path d="M20,20V4a2,2,0,0,0-2-2H6A2,2,0,0,0,4,4V20a2,2,0,0,0,2,2H18A2,2,0,0,0,20,20ZM8,15a1,1,0,1,1,1-1A1,1,0,0,1,8,15Zm0-4a1,1,0,1,1,1-1A1,1,0,0,1,8,11Zm4,8a1,1,0,1,1,1-1A1,1,0,0,1,12,19Zm0-4a1,1,0,1,1,1-1A1,1,0,0,1,12,15Zm0-4a1,1,0,1,1,1-1A1,1,0,0,1,12,11Zm4,4a1,1,0,1,1,1-1A1,1,0,0,1,16,15Zm0-4a1,1,0,1,1,1-1A1,1,0,0,1,16,11Zm0-4H8A1,1,0,0,1,8,5h8a1,1,0,0,1,0,2Z"/>
</g>
</svg>